<svg id="Layer_1" data-name="Layer 1" xmlns="http://www.w3.org/2000/svg" xmlns:xlink="http://www.w3.org/1999/xlink" viewBox="0 0 304 199.33"><defs><style>.cls-1{fill:#9bd2dd;}.cls-2{fill:#4b6298;}.cls-3{fill:#88b8ce;}.cls-4{fill:#485e96;}.cls-5{fill:#475d95;}.cls-6{fill:#3c4c8b;}.cls-7,.cls-9{font-size:12px;font-family:MyriadPro-Regular, Myriad Pro;}.cls-8{letter-spacing:-0.01em;}.cls-9{letter-spacing:0em;}.cls-10{letter-spacing:0em;}.cls-11{letter-spacing:-0.08em;}.cls-12{letter-spacing:-0.02em;}.cls-13{fill:#2b2b6e;}.cls-14{fill:#1a1d6e;}.cls-15{fill:url(#linear-gradient);}.cls-16{fill:#313d82;}.cls-17,.cls-27{fill:none;stroke-miterlimit:10;}.cls-17{stroke:#231f20;stroke-linecap:round;}.cls-18{letter-spacing:0em;}.cls-19{letter-spacing:-0.01em;}.cls-20{letter-spacing:0em;}.cls-21{letter-spacing:-0.01em;}.cls-22{letter-spacing:-0.01em;}.cls-23{letter-spacing:0em;}.cls-24{letter-spacing:-0.01em;}.cls-25{letter-spacing:-0.01em;}.cls-26{letter-spacing:-0.01em;}.cls-27{stroke:#000;}</style><linearGradient id="linear-gradient" x1="82.91" y1="170.05" x2="298.39" y2="170.05" gradientUnits="userSpaceOnUse"><stop offset="0" stop-color="#99d3df"/><stop offset="1" stop-color="#191970"/></linearGradient></defs><title>Artboard 1</title><rect class="cls-1" x="84.78" y="8.77" width="23.66" height="64.13"/><rect class="cls-2" x="132.11" y="40.84" width="23.66" height="32.07"/><rect class="cls-3" x="108.45" y="24.15" width="23.66" height="48.76"/><rect class="cls-4" x="155.78" y="72.91" width="23.66" height="25.57"/><rect class="cls-5" x="179.44" y="72.91" width="23.66" height="36.95"/><rect class="cls-6" x="203.1" y="72.91" width="23.66" height="51.15"/><text class="cls-7" transform="translate(90.51 86)">IH</text><text class="cls-7" transform="translate(114.86 86.16)"><tspan class="cls-8">I</tspan><tspan x="2.78" y="0">Y</tspan></text><text class="cls-9" transform="translate(135.55 86.16)">E<tspan class="cls-10" x="5.94" y="0">Y </tspan></text><text class="cls-7" transform="translate(161.47 68.83)"><tspan class="cls-11">A</tspan><tspan x="6.4" y="0">Y</tspan></text><text class="cls-7" transform="translate(184.39 68.83)">AE</text><text class="cls-7" transform="translate(229.77 69.02)">UH</text><text class="cls-7" transform="translate(205.49 69.02)">UW</text><text class="cls-7" transform="translate(254.63 68.83)">AA</text><text class="cls-7" transform="translate(277.43 68.83)"><tspan class="cls-12">A</tspan><tspan x="7.16" y="0">O</tspan></text><rect class="cls-13" x="250.43" y="72.91" width="23.66" height="77.1"/><rect class="cls-14" x="274.1" y="72.91" width="23.66" height="67.94"/><rect class="cls-15" x="82.91" y="166.85" width="215.47" height="6.41" rx="3.2" ry="3.2"/><rect class="cls-16" x="226.77" y="72.91" width="23.66" height="61.3"/><line class="cls-17" x1="58.33" y1="8.77" x2="58.33" y2="150.01"/><text class="cls-7" transform="translate(139.12 189.19)">lig<tspan class="cls-18" x="12.35" y="0">h</tspan><tspan x="18.96" y="0">t </tspan><tspan class="cls-19" x="25.48" y="0">t</tspan><tspan x="29.38" y="0">o da</tspan><tspan class="cls-20" x="51.06" y="0">r</tspan><tspan x="55.03" y="0">k </tspan><tspan class="cls-21" x="63.2" y="0">v</tspan><tspan class="cls-8" x="68.85" y="0">o</tspan><tspan class="cls-22" x="75.36" y="0">w</tspan><tspan x="84.07" y="0">els</tspan></text><text class="cls-7" transform="translate(8.22 19.67)">ab<tspan class="cls-8" x="12.61" y="0">o</tspan><tspan class="cls-21" x="19.12" y="0">v</tspan><tspan class="cls-23" x="24.77" y="0">e</tspan><tspan class="cls-24"><tspan x="0" y="14.4">a</tspan><tspan class="cls-21" x="5.69" y="14.4">v</tspan><tspan class="cls-23" x="11.34" y="14.4">e</tspan><tspan class="cls-25" x="17.35" y="14.4">r</tspan><tspan class="cls-23" x="21.22" y="14.4">age</tspan></tspan></text><text class="cls-7" transform="translate(8.22 132.67)">bel<tspan class="cls-26" x="15.67" y="0">o</tspan><tspan x="22.18" y="0">w </tspan><tspan class="cls-24"><tspan x="0" y="14.4">a</tspan><tspan class="cls-21" x="5.69" y="14.4">v</tspan><tspan class="cls-23" x="11.34" y="14.4">e</tspan><tspan class="cls-25" x="17.35" y="14.4">r</tspan><tspan class="cls-23" x="21.22" y="14.4">age</tspan></tspan></text><line class="cls-27" x1="58.33" y1="72.91" x2="72.67" y2="72.91"/></svg>